<mxfile host="Electron" modified="2023-12-21T15:17:02.379Z" agent="Mozilla/5.0 (Windows NT 10.0; Win64; x64) AppleWebKit/537.36 (KHTML, like Gecko) draw.io/22.0.3 Chrome/114.0.5735.289 Electron/25.8.4 Safari/537.36" etag="qCqWBMDTRPO9V01xmyzb" version="22.0.3" type="device">
  <diagram name="Page-1" id="2YBvvXClWsGukQMizWep">
    <mxGraphModel dx="1696" dy="686" grid="0" gridSize="10" guides="1" tooltips="1" connect="1" arrows="1" fold="1" page="0" pageScale="1" pageWidth="850" pageHeight="1100" math="0" shadow="0">
      <root>
        <mxCell id="0" />
        <mxCell id="1" parent="0" />
        <mxCell id="aM9ryv3xv72pqoxQDRHE-1" value="Doctor" style="shape=umlLifeline;perimeter=lifelinePerimeter;whiteSpace=wrap;html=1;container=0;dropTarget=0;collapsible=0;recursiveResize=0;outlineConnect=0;portConstraint=eastwest;newEdgeStyle={&quot;edgeStyle&quot;:&quot;elbowEdgeStyle&quot;,&quot;elbow&quot;:&quot;vertical&quot;,&quot;curved&quot;:0,&quot;rounded&quot;:0};" parent="1" vertex="1">
          <mxGeometry x="40" y="41" width="100" height="1783" as="geometry" />
        </mxCell>
        <mxCell id="aM9ryv3xv72pqoxQDRHE-2" value="" style="html=1;points=[];perimeter=orthogonalPerimeter;outlineConnect=0;targetShapes=umlLifeline;portConstraint=eastwest;newEdgeStyle={&quot;edgeStyle&quot;:&quot;elbowEdgeStyle&quot;,&quot;elbow&quot;:&quot;vertical&quot;,&quot;curved&quot;:0,&quot;rounded&quot;:0};" parent="aM9ryv3xv72pqoxQDRHE-1" vertex="1">
          <mxGeometry x="37.5" y="70" width="25" height="60" as="geometry" />
        </mxCell>
        <mxCell id="Yi0YoR2tTTPQUQmLsUzV-11" value="" style="html=1;points=[];perimeter=orthogonalPerimeter;outlineConnect=0;targetShapes=umlLifeline;portConstraint=eastwest;newEdgeStyle={&quot;edgeStyle&quot;:&quot;elbowEdgeStyle&quot;,&quot;elbow&quot;:&quot;vertical&quot;,&quot;curved&quot;:0,&quot;rounded&quot;:0};" vertex="1" parent="aM9ryv3xv72pqoxQDRHE-1">
          <mxGeometry x="37.5" y="210" width="25" height="290" as="geometry" />
        </mxCell>
        <mxCell id="Yi0YoR2tTTPQUQmLsUzV-28" value="" style="html=1;points=[];perimeter=orthogonalPerimeter;outlineConnect=0;targetShapes=umlLifeline;portConstraint=eastwest;newEdgeStyle={&quot;edgeStyle&quot;:&quot;elbowEdgeStyle&quot;,&quot;elbow&quot;:&quot;vertical&quot;,&quot;curved&quot;:0,&quot;rounded&quot;:0};" vertex="1" parent="aM9ryv3xv72pqoxQDRHE-1">
          <mxGeometry x="37.5" y="570" width="25" height="290" as="geometry" />
        </mxCell>
        <mxCell id="Yi0YoR2tTTPQUQmLsUzV-66" value="" style="html=1;points=[];perimeter=orthogonalPerimeter;outlineConnect=0;targetShapes=umlLifeline;portConstraint=eastwest;newEdgeStyle={&quot;edgeStyle&quot;:&quot;elbowEdgeStyle&quot;,&quot;elbow&quot;:&quot;vertical&quot;,&quot;curved&quot;:0,&quot;rounded&quot;:0};" vertex="1" parent="aM9ryv3xv72pqoxQDRHE-1">
          <mxGeometry x="37.5" y="1430" width="25" height="70" as="geometry" />
        </mxCell>
        <mxCell id="Yi0YoR2tTTPQUQmLsUzV-74" value="" style="html=1;points=[];perimeter=orthogonalPerimeter;outlineConnect=0;targetShapes=umlLifeline;portConstraint=eastwest;newEdgeStyle={&quot;edgeStyle&quot;:&quot;elbowEdgeStyle&quot;,&quot;elbow&quot;:&quot;vertical&quot;,&quot;curved&quot;:0,&quot;rounded&quot;:0};" vertex="1" parent="aM9ryv3xv72pqoxQDRHE-1">
          <mxGeometry x="37.5" y="1610" width="25" height="70" as="geometry" />
        </mxCell>
        <mxCell id="aM9ryv3xv72pqoxQDRHE-5" value="Interface" style="shape=umlLifeline;perimeter=lifelinePerimeter;whiteSpace=wrap;html=1;container=0;dropTarget=0;collapsible=0;recursiveResize=0;outlineConnect=0;portConstraint=eastwest;newEdgeStyle={&quot;edgeStyle&quot;:&quot;elbowEdgeStyle&quot;,&quot;elbow&quot;:&quot;vertical&quot;,&quot;curved&quot;:0,&quot;rounded&quot;:0};" parent="1" vertex="1">
          <mxGeometry x="220" y="40" width="100" height="1792" as="geometry" />
        </mxCell>
        <mxCell id="Yi0YoR2tTTPQUQmLsUzV-1" value="" style="html=1;points=[];perimeter=orthogonalPerimeter;outlineConnect=0;targetShapes=umlLifeline;portConstraint=eastwest;newEdgeStyle={&quot;edgeStyle&quot;:&quot;elbowEdgeStyle&quot;,&quot;elbow&quot;:&quot;vertical&quot;,&quot;curved&quot;:0,&quot;rounded&quot;:0};" vertex="1" parent="aM9ryv3xv72pqoxQDRHE-5">
          <mxGeometry x="37.5" y="70" width="25" height="60" as="geometry" />
        </mxCell>
        <mxCell id="Yi0YoR2tTTPQUQmLsUzV-12" value="" style="html=1;points=[];perimeter=orthogonalPerimeter;outlineConnect=0;targetShapes=umlLifeline;portConstraint=eastwest;newEdgeStyle={&quot;edgeStyle&quot;:&quot;elbowEdgeStyle&quot;,&quot;elbow&quot;:&quot;vertical&quot;,&quot;curved&quot;:0,&quot;rounded&quot;:0};" vertex="1" parent="aM9ryv3xv72pqoxQDRHE-5">
          <mxGeometry x="37.5" y="210" width="25" height="290" as="geometry" />
        </mxCell>
        <mxCell id="Yi0YoR2tTTPQUQmLsUzV-29" value="" style="html=1;points=[];perimeter=orthogonalPerimeter;outlineConnect=0;targetShapes=umlLifeline;portConstraint=eastwest;newEdgeStyle={&quot;edgeStyle&quot;:&quot;elbowEdgeStyle&quot;,&quot;elbow&quot;:&quot;vertical&quot;,&quot;curved&quot;:0,&quot;rounded&quot;:0};" vertex="1" parent="aM9ryv3xv72pqoxQDRHE-5">
          <mxGeometry x="37.5" y="570" width="25" height="290" as="geometry" />
        </mxCell>
        <mxCell id="aM9ryv3xv72pqoxQDRHE-7" value="login(doctorName, password)" style="html=1;verticalAlign=bottom;endArrow=block;edgeStyle=elbowEdgeStyle;elbow=vertical;curved=0;rounded=0;" parent="1" source="aM9ryv3xv72pqoxQDRHE-2" edge="1">
          <mxGeometry relative="1" as="geometry">
            <mxPoint x="195" y="130" as="sourcePoint" />
            <Array as="points">
              <mxPoint x="180" y="120" />
            </Array>
            <mxPoint x="260" y="120" as="targetPoint" />
          </mxGeometry>
        </mxCell>
        <mxCell id="Yi0YoR2tTTPQUQmLsUzV-2" value="Controller" style="shape=umlLifeline;perimeter=lifelinePerimeter;whiteSpace=wrap;html=1;container=0;dropTarget=0;collapsible=0;recursiveResize=0;outlineConnect=0;portConstraint=eastwest;newEdgeStyle={&quot;edgeStyle&quot;:&quot;elbowEdgeStyle&quot;,&quot;elbow&quot;:&quot;vertical&quot;,&quot;curved&quot;:0,&quot;rounded&quot;:0};" vertex="1" parent="1">
          <mxGeometry x="400" y="40" width="100" height="1787" as="geometry" />
        </mxCell>
        <mxCell id="Yi0YoR2tTTPQUQmLsUzV-3" value="" style="html=1;points=[];perimeter=orthogonalPerimeter;outlineConnect=0;targetShapes=umlLifeline;portConstraint=eastwest;newEdgeStyle={&quot;edgeStyle&quot;:&quot;elbowEdgeStyle&quot;,&quot;elbow&quot;:&quot;vertical&quot;,&quot;curved&quot;:0,&quot;rounded&quot;:0};" vertex="1" parent="Yi0YoR2tTTPQUQmLsUzV-2">
          <mxGeometry x="37.5" y="70" width="25" height="80" as="geometry" />
        </mxCell>
        <mxCell id="Yi0YoR2tTTPQUQmLsUzV-4" value="requestLogin(doctorName.&lt;br&gt;password)" style="html=1;verticalAlign=bottom;endArrow=block;curved=0;rounded=0;" edge="1" parent="1">
          <mxGeometry width="80" relative="1" as="geometry">
            <mxPoint x="280" y="130" as="sourcePoint" />
            <mxPoint x="437.5" y="130" as="targetPoint" />
          </mxGeometry>
        </mxCell>
        <mxCell id="Yi0YoR2tTTPQUQmLsUzV-5" value="Database" style="shape=umlLifeline;perimeter=lifelinePerimeter;whiteSpace=wrap;html=1;container=0;dropTarget=0;collapsible=0;recursiveResize=0;outlineConnect=0;portConstraint=eastwest;newEdgeStyle={&quot;edgeStyle&quot;:&quot;elbowEdgeStyle&quot;,&quot;elbow&quot;:&quot;vertical&quot;,&quot;curved&quot;:0,&quot;rounded&quot;:0};" vertex="1" parent="1">
          <mxGeometry x="580" y="40" width="100" height="1790" as="geometry" />
        </mxCell>
        <mxCell id="Yi0YoR2tTTPQUQmLsUzV-6" value="" style="html=1;points=[];perimeter=orthogonalPerimeter;outlineConnect=0;targetShapes=umlLifeline;portConstraint=eastwest;newEdgeStyle={&quot;edgeStyle&quot;:&quot;elbowEdgeStyle&quot;,&quot;elbow&quot;:&quot;vertical&quot;,&quot;curved&quot;:0,&quot;rounded&quot;:0};" vertex="1" parent="Yi0YoR2tTTPQUQmLsUzV-5">
          <mxGeometry x="37.5" y="70" width="25" height="80" as="geometry" />
        </mxCell>
        <mxCell id="Yi0YoR2tTTPQUQmLsUzV-19" value="" style="html=1;points=[];perimeter=orthogonalPerimeter;outlineConnect=0;targetShapes=umlLifeline;portConstraint=eastwest;newEdgeStyle={&quot;edgeStyle&quot;:&quot;elbowEdgeStyle&quot;,&quot;elbow&quot;:&quot;vertical&quot;,&quot;curved&quot;:0,&quot;rounded&quot;:0};" vertex="1" parent="Yi0YoR2tTTPQUQmLsUzV-5">
          <mxGeometry x="37.5" y="210" width="25" height="170" as="geometry" />
        </mxCell>
        <mxCell id="Yi0YoR2tTTPQUQmLsUzV-34" value="" style="html=1;points=[];perimeter=orthogonalPerimeter;outlineConnect=0;targetShapes=umlLifeline;portConstraint=eastwest;newEdgeStyle={&quot;edgeStyle&quot;:&quot;elbowEdgeStyle&quot;,&quot;elbow&quot;:&quot;vertical&quot;,&quot;curved&quot;:0,&quot;rounded&quot;:0};" vertex="1" parent="Yi0YoR2tTTPQUQmLsUzV-5">
          <mxGeometry x="37.5" y="580" width="25" height="180" as="geometry" />
        </mxCell>
        <mxCell id="Yi0YoR2tTTPQUQmLsUzV-7" value="validateCredentials&lt;br&gt;(doctorName, password)" style="html=1;verticalAlign=bottom;endArrow=block;curved=0;rounded=0;" edge="1" parent="1" target="Yi0YoR2tTTPQUQmLsUzV-6">
          <mxGeometry width="80" relative="1" as="geometry">
            <mxPoint x="460" y="140" as="sourcePoint" />
            <mxPoint x="540" y="140" as="targetPoint" />
          </mxGeometry>
        </mxCell>
        <mxCell id="Yi0YoR2tTTPQUQmLsUzV-8" value="verificationResult" style="html=1;verticalAlign=bottom;endArrow=open;dashed=1;endSize=8;curved=0;rounded=0;entryX=0.9;entryY=0.625;entryDx=0;entryDy=0;entryPerimeter=0;" edge="1" parent="1" source="Yi0YoR2tTTPQUQmLsUzV-6" target="Yi0YoR2tTTPQUQmLsUzV-3">
          <mxGeometry relative="1" as="geometry">
            <mxPoint x="550" y="160" as="sourcePoint" />
            <mxPoint x="470" y="160" as="targetPoint" />
          </mxGeometry>
        </mxCell>
        <mxCell id="Yi0YoR2tTTPQUQmLsUzV-9" value="Alt" style="shape=umlFrame;whiteSpace=wrap;html=1;pointerEvents=0;" vertex="1" parent="1">
          <mxGeometry x="-90" y="200" width="850" height="1560" as="geometry" />
        </mxCell>
        <mxCell id="Yi0YoR2tTTPQUQmLsUzV-10" value="&lt;b&gt;[Login successful]&lt;/b&gt;" style="text;html=1;strokeColor=none;fillColor=none;align=center;verticalAlign=middle;whiteSpace=wrap;rounded=0;" vertex="1" parent="1">
          <mxGeometry x="-80" y="250" width="60" height="30" as="geometry" />
        </mxCell>
        <mxCell id="Yi0YoR2tTTPQUQmLsUzV-13" value="" style="html=1;points=[];perimeter=orthogonalPerimeter;outlineConnect=0;targetShapes=umlLifeline;portConstraint=eastwest;newEdgeStyle={&quot;edgeStyle&quot;:&quot;elbowEdgeStyle&quot;,&quot;elbow&quot;:&quot;vertical&quot;,&quot;curved&quot;:0,&quot;rounded&quot;:0};" vertex="1" parent="1">
          <mxGeometry x="440" y="250" width="25" height="290" as="geometry" />
        </mxCell>
        <mxCell id="Yi0YoR2tTTPQUQmLsUzV-14" value="loginSuccess" style="html=1;verticalAlign=bottom;endArrow=open;dashed=1;endSize=8;curved=0;rounded=0;" edge="1" parent="1" source="Yi0YoR2tTTPQUQmLsUzV-13">
          <mxGeometry relative="1" as="geometry">
            <mxPoint x="360" y="270" as="sourcePoint" />
            <mxPoint x="280" y="270" as="targetPoint" />
          </mxGeometry>
        </mxCell>
        <mxCell id="Yi0YoR2tTTPQUQmLsUzV-15" value="display login success" style="html=1;verticalAlign=bottom;endArrow=open;dashed=1;endSize=8;curved=0;rounded=0;" edge="1" parent="1" source="Yi0YoR2tTTPQUQmLsUzV-12">
          <mxGeometry relative="1" as="geometry">
            <mxPoint x="180" y="290" as="sourcePoint" />
            <mxPoint x="100" y="290" as="targetPoint" />
          </mxGeometry>
        </mxCell>
        <mxCell id="Yi0YoR2tTTPQUQmLsUzV-16" value="Alt" style="shape=umlFrame;whiteSpace=wrap;html=1;pointerEvents=0;" vertex="1" parent="1">
          <mxGeometry x="-70" y="430" width="815" height="1150" as="geometry" />
        </mxCell>
        <mxCell id="Yi0YoR2tTTPQUQmLsUzV-17" value="seachCriteria&lt;br&gt;(patientName. &lt;br&gt;patientId,gender)" style="html=1;verticalAlign=bottom;endArrow=block;curved=0;rounded=0;" edge="1" parent="1">
          <mxGeometry width="80" relative="1" as="geometry">
            <mxPoint x="100" y="340" as="sourcePoint" />
            <mxPoint x="257.5" y="340" as="targetPoint" />
          </mxGeometry>
        </mxCell>
        <mxCell id="Yi0YoR2tTTPQUQmLsUzV-18" value="searchPatientRecord&lt;br&gt;(searchCriteria)" style="html=1;verticalAlign=bottom;endArrow=block;curved=0;rounded=0;" edge="1" parent="1" target="Yi0YoR2tTTPQUQmLsUzV-13">
          <mxGeometry width="80" relative="1" as="geometry">
            <mxPoint x="280" y="350" as="sourcePoint" />
            <mxPoint x="360" y="350" as="targetPoint" />
          </mxGeometry>
        </mxCell>
        <mxCell id="Yi0YoR2tTTPQUQmLsUzV-20" value="searchPatientRecord&lt;br style=&quot;border-color: var(--border-color);&quot;&gt;(searchCriteria)" style="html=1;verticalAlign=bottom;endArrow=block;curved=0;rounded=0;" edge="1" parent="1" target="Yi0YoR2tTTPQUQmLsUzV-19">
          <mxGeometry width="80" relative="1" as="geometry">
            <mxPoint x="465" y="370" as="sourcePoint" />
            <mxPoint x="545" y="370" as="targetPoint" />
          </mxGeometry>
        </mxCell>
        <mxCell id="Yi0YoR2tTTPQUQmLsUzV-21" value="searchResult" style="html=1;verticalAlign=bottom;endArrow=open;dashed=1;endSize=8;curved=0;rounded=0;" edge="1" parent="1">
          <mxGeometry relative="1" as="geometry">
            <mxPoint x="617.5" y="400" as="sourcePoint" />
            <mxPoint x="465" y="400" as="targetPoint" />
          </mxGeometry>
        </mxCell>
        <mxCell id="Yi0YoR2tTTPQUQmLsUzV-22" value="&lt;b&gt;[record found]&lt;/b&gt;" style="text;html=1;strokeColor=none;fillColor=none;align=center;verticalAlign=middle;whiteSpace=wrap;rounded=0;" vertex="1" parent="1">
          <mxGeometry x="-60" y="490" width="60" height="30" as="geometry" />
        </mxCell>
        <mxCell id="Yi0YoR2tTTPQUQmLsUzV-23" value="displayPatientInfo&lt;br&gt;(patientReocrd)" style="html=1;verticalAlign=bottom;endArrow=open;dashed=1;endSize=8;curved=0;rounded=0;" edge="1" parent="1">
          <mxGeometry relative="1" as="geometry">
            <mxPoint x="440" y="459.9999999999998" as="sourcePoint" />
            <mxPoint x="280" y="460" as="targetPoint" />
          </mxGeometry>
        </mxCell>
        <mxCell id="Yi0YoR2tTTPQUQmLsUzV-24" value="show patient info" style="html=1;verticalAlign=bottom;endArrow=open;dashed=1;endSize=8;curved=0;rounded=0;" edge="1" parent="1">
          <mxGeometry relative="1" as="geometry">
            <mxPoint x="257.5" y="489.9999999999998" as="sourcePoint" />
            <mxPoint x="100" y="490" as="targetPoint" />
          </mxGeometry>
        </mxCell>
        <mxCell id="Yi0YoR2tTTPQUQmLsUzV-25" value="Alt" style="shape=umlFrame;whiteSpace=wrap;html=1;pointerEvents=0;" vertex="1" parent="1">
          <mxGeometry x="-50" y="560" width="780" height="830" as="geometry" />
        </mxCell>
        <mxCell id="Yi0YoR2tTTPQUQmLsUzV-26" value="&lt;b&gt;[choose to update]&lt;/b&gt;" style="text;html=1;strokeColor=none;fillColor=none;align=center;verticalAlign=middle;whiteSpace=wrap;rounded=0;" vertex="1" parent="1">
          <mxGeometry x="-40" y="610" width="60" height="30" as="geometry" />
        </mxCell>
        <mxCell id="Yi0YoR2tTTPQUQmLsUzV-30" value="selectReocrdForUpdate&lt;br&gt;(recordId)" style="html=1;verticalAlign=bottom;endArrow=block;curved=0;rounded=0;" edge="1" parent="1">
          <mxGeometry width="80" relative="1" as="geometry">
            <mxPoint x="100" y="649.41" as="sourcePoint" />
            <mxPoint x="257.5" y="649.4099999999997" as="targetPoint" />
          </mxGeometry>
        </mxCell>
        <mxCell id="Yi0YoR2tTTPQUQmLsUzV-32" value="requestUpdate&lt;br&gt;(recordId, updateData)" style="html=1;verticalAlign=bottom;endArrow=block;curved=0;rounded=0;" edge="1" parent="1">
          <mxGeometry width="80" relative="1" as="geometry">
            <mxPoint x="280" y="670" as="sourcePoint" />
            <mxPoint x="440" y="669.9999999999998" as="targetPoint" />
            <mxPoint as="offset" />
          </mxGeometry>
        </mxCell>
        <mxCell id="Yi0YoR2tTTPQUQmLsUzV-33" value="" style="html=1;points=[];perimeter=orthogonalPerimeter;outlineConnect=0;targetShapes=umlLifeline;portConstraint=eastwest;newEdgeStyle={&quot;edgeStyle&quot;:&quot;elbowEdgeStyle&quot;,&quot;elbow&quot;:&quot;vertical&quot;,&quot;curved&quot;:0,&quot;rounded&quot;:0};" vertex="1" parent="1">
          <mxGeometry x="440" y="610" width="25" height="290" as="geometry" />
        </mxCell>
        <mxCell id="Yi0YoR2tTTPQUQmLsUzV-35" value="updatePatientRecord&lt;br&gt;(recordId, updateData)" style="html=1;verticalAlign=bottom;endArrow=block;curved=0;rounded=0;" edge="1" parent="1">
          <mxGeometry x="0.0029" width="80" relative="1" as="geometry">
            <mxPoint x="465" y="700" as="sourcePoint" />
            <mxPoint x="617.5" y="699.9999999999999" as="targetPoint" />
            <mxPoint as="offset" />
          </mxGeometry>
        </mxCell>
        <mxCell id="Yi0YoR2tTTPQUQmLsUzV-36" value="Alt" style="shape=umlFrame;whiteSpace=wrap;html=1;pointerEvents=0;" vertex="1" parent="1">
          <mxGeometry x="-30" y="740" width="740" height="640" as="geometry" />
        </mxCell>
        <mxCell id="Yi0YoR2tTTPQUQmLsUzV-37" value="&lt;b&gt;[record locked]&lt;/b&gt;" style="text;html=1;strokeColor=none;fillColor=none;align=center;verticalAlign=middle;whiteSpace=wrap;rounded=0;" vertex="1" parent="1">
          <mxGeometry x="-20" y="790" width="60" height="30" as="geometry" />
        </mxCell>
        <mxCell id="Yi0YoR2tTTPQUQmLsUzV-39" value="show locked error" style="html=1;verticalAlign=bottom;endArrow=open;dashed=1;endSize=8;curved=0;rounded=0;" edge="1" parent="1">
          <mxGeometry relative="1" as="geometry">
            <mxPoint x="257.5" y="834.4099999999999" as="sourcePoint" />
            <mxPoint x="100" y="834.41" as="targetPoint" />
          </mxGeometry>
        </mxCell>
        <mxCell id="Yi0YoR2tTTPQUQmLsUzV-41" value="displayRecordLockedError()" style="html=1;verticalAlign=bottom;endArrow=open;dashed=1;endSize=8;curved=0;rounded=0;" edge="1" parent="1">
          <mxGeometry relative="1" as="geometry">
            <mxPoint x="440" y="810" as="sourcePoint" />
            <mxPoint x="282" y="810.41" as="targetPoint" />
          </mxGeometry>
        </mxCell>
        <mxCell id="Yi0YoR2tTTPQUQmLsUzV-42" value="recordLocked" style="html=1;verticalAlign=bottom;endArrow=open;dashed=1;endSize=8;curved=0;rounded=0;" edge="1" parent="1">
          <mxGeometry relative="1" as="geometry">
            <mxPoint x="618" y="770" as="sourcePoint" />
            <mxPoint x="460" y="770" as="targetPoint" />
          </mxGeometry>
        </mxCell>
        <mxCell id="Yi0YoR2tTTPQUQmLsUzV-43" value="" style="endArrow=none;dashed=1;html=1;rounded=0;exitX=0.002;exitY=0.473;exitDx=0;exitDy=0;exitPerimeter=0;entryX=1.002;entryY=0.469;entryDx=0;entryDy=0;entryPerimeter=0;" edge="1" parent="1">
          <mxGeometry width="50" height="50" relative="1" as="geometry">
            <mxPoint x="-29.999999999999755" y="942.5600000000001" as="sourcePoint" />
            <mxPoint x="710" y="939.9999999999999" as="targetPoint" />
          </mxGeometry>
        </mxCell>
        <mxCell id="Yi0YoR2tTTPQUQmLsUzV-44" value="&lt;b&gt;[record update]&lt;/b&gt;" style="text;html=1;strokeColor=none;fillColor=none;align=center;verticalAlign=middle;whiteSpace=wrap;rounded=0;" vertex="1" parent="1">
          <mxGeometry x="-20" y="980" width="60" height="30" as="geometry" />
        </mxCell>
        <mxCell id="Yi0YoR2tTTPQUQmLsUzV-45" value="" style="html=1;points=[];perimeter=orthogonalPerimeter;outlineConnect=0;targetShapes=umlLifeline;portConstraint=eastwest;newEdgeStyle={&quot;edgeStyle&quot;:&quot;elbowEdgeStyle&quot;,&quot;elbow&quot;:&quot;vertical&quot;,&quot;curved&quot;:0,&quot;rounded&quot;:0};" vertex="1" parent="1">
          <mxGeometry x="617.5" y="980" width="25" height="330" as="geometry" />
        </mxCell>
        <mxCell id="Yi0YoR2tTTPQUQmLsUzV-46" value="" style="html=1;points=[];perimeter=orthogonalPerimeter;outlineConnect=0;targetShapes=umlLifeline;portConstraint=eastwest;newEdgeStyle={&quot;edgeStyle&quot;:&quot;elbowEdgeStyle&quot;,&quot;elbow&quot;:&quot;vertical&quot;,&quot;curved&quot;:0,&quot;rounded&quot;:0};" vertex="1" parent="1">
          <mxGeometry x="440" y="980" width="25" height="70" as="geometry" />
        </mxCell>
        <mxCell id="Yi0YoR2tTTPQUQmLsUzV-47" value="updateInProgress" style="html=1;verticalAlign=bottom;endArrow=open;dashed=1;endSize=8;curved=0;rounded=0;" edge="1" parent="1" source="Yi0YoR2tTTPQUQmLsUzV-45">
          <mxGeometry relative="1" as="geometry">
            <mxPoint x="545" y="1010" as="sourcePoint" />
            <mxPoint x="465" y="1010" as="targetPoint" />
          </mxGeometry>
        </mxCell>
        <mxCell id="Yi0YoR2tTTPQUQmLsUzV-48" value="Alt" style="shape=umlFrame;whiteSpace=wrap;html=1;pointerEvents=0;" vertex="1" parent="1">
          <mxGeometry x="-10" y="1060" width="700" height="300" as="geometry" />
        </mxCell>
        <mxCell id="Yi0YoR2tTTPQUQmLsUzV-49" value="&lt;b&gt;[Update successful]&lt;/b&gt;" style="text;html=1;strokeColor=none;fillColor=none;align=center;verticalAlign=middle;whiteSpace=wrap;rounded=0;" vertex="1" parent="1">
          <mxGeometry y="1120" width="60" height="30" as="geometry" />
        </mxCell>
        <mxCell id="Yi0YoR2tTTPQUQmLsUzV-50" value="" style="endArrow=none;dashed=1;html=1;rounded=0;exitX=0.002;exitY=0.473;exitDx=0;exitDy=0;exitPerimeter=0;" edge="1" parent="1">
          <mxGeometry width="50" height="50" relative="1" as="geometry">
            <mxPoint x="-9.999999999999755" y="1232.56" as="sourcePoint" />
            <mxPoint x="690" y="1230" as="targetPoint" />
          </mxGeometry>
        </mxCell>
        <mxCell id="Yi0YoR2tTTPQUQmLsUzV-51" value="&lt;b&gt;[Update fail]&lt;/b&gt;" style="text;html=1;strokeColor=none;fillColor=none;align=center;verticalAlign=middle;whiteSpace=wrap;rounded=0;" vertex="1" parent="1">
          <mxGeometry y="1240" width="60" height="30" as="geometry" />
        </mxCell>
        <mxCell id="Yi0YoR2tTTPQUQmLsUzV-52" value="" style="html=1;points=[];perimeter=orthogonalPerimeter;outlineConnect=0;targetShapes=umlLifeline;portConstraint=eastwest;newEdgeStyle={&quot;edgeStyle&quot;:&quot;elbowEdgeStyle&quot;,&quot;elbow&quot;:&quot;vertical&quot;,&quot;curved&quot;:0,&quot;rounded&quot;:0};" vertex="1" parent="1">
          <mxGeometry x="440" y="1110" width="25" height="70" as="geometry" />
        </mxCell>
        <mxCell id="Yi0YoR2tTTPQUQmLsUzV-53" value="updateSuccess" style="html=1;verticalAlign=bottom;endArrow=open;dashed=1;endSize=8;curved=0;rounded=0;" edge="1" parent="1">
          <mxGeometry relative="1" as="geometry">
            <mxPoint x="617.5" y="1134.41" as="sourcePoint" />
            <mxPoint x="464.5" y="1134.41" as="targetPoint" />
          </mxGeometry>
        </mxCell>
        <mxCell id="Yi0YoR2tTTPQUQmLsUzV-54" value="" style="html=1;points=[];perimeter=orthogonalPerimeter;outlineConnect=0;targetShapes=umlLifeline;portConstraint=eastwest;newEdgeStyle={&quot;edgeStyle&quot;:&quot;elbowEdgeStyle&quot;,&quot;elbow&quot;:&quot;vertical&quot;,&quot;curved&quot;:0,&quot;rounded&quot;:0};" vertex="1" parent="1">
          <mxGeometry x="437.5" y="1240" width="25" height="70" as="geometry" />
        </mxCell>
        <mxCell id="Yi0YoR2tTTPQUQmLsUzV-55" value="updateFailure" style="html=1;verticalAlign=bottom;endArrow=open;dashed=1;endSize=8;curved=0;rounded=0;" edge="1" parent="1">
          <mxGeometry relative="1" as="geometry">
            <mxPoint x="615.5" y="1274.41" as="sourcePoint" />
            <mxPoint x="462.5" y="1274.41" as="targetPoint" />
          </mxGeometry>
        </mxCell>
        <mxCell id="Yi0YoR2tTTPQUQmLsUzV-56" value="" style="html=1;points=[];perimeter=orthogonalPerimeter;outlineConnect=0;targetShapes=umlLifeline;portConstraint=eastwest;newEdgeStyle={&quot;edgeStyle&quot;:&quot;elbowEdgeStyle&quot;,&quot;elbow&quot;:&quot;vertical&quot;,&quot;curved&quot;:0,&quot;rounded&quot;:0};" vertex="1" parent="1">
          <mxGeometry x="260" y="1110" width="25" height="70" as="geometry" />
        </mxCell>
        <mxCell id="Yi0YoR2tTTPQUQmLsUzV-57" value="" style="html=1;points=[];perimeter=orthogonalPerimeter;outlineConnect=0;targetShapes=umlLifeline;portConstraint=eastwest;newEdgeStyle={&quot;edgeStyle&quot;:&quot;elbowEdgeStyle&quot;,&quot;elbow&quot;:&quot;vertical&quot;,&quot;curved&quot;:0,&quot;rounded&quot;:0};" vertex="1" parent="1">
          <mxGeometry x="257.5" y="1240" width="25" height="70" as="geometry" />
        </mxCell>
        <mxCell id="Yi0YoR2tTTPQUQmLsUzV-58" value="displayUpdateSuccess()" style="html=1;verticalAlign=bottom;endArrow=open;dashed=1;endSize=8;curved=0;rounded=0;" edge="1" parent="1">
          <mxGeometry relative="1" as="geometry">
            <mxPoint x="437.5" y="1150" as="sourcePoint" />
            <mxPoint x="284.5" y="1150" as="targetPoint" />
          </mxGeometry>
        </mxCell>
        <mxCell id="Yi0YoR2tTTPQUQmLsUzV-59" value="displayUpdateFailure()" style="html=1;verticalAlign=bottom;endArrow=open;dashed=1;endSize=8;curved=0;rounded=0;" edge="1" parent="1">
          <mxGeometry relative="1" as="geometry">
            <mxPoint x="435.5" y="1280" as="sourcePoint" />
            <mxPoint x="282.5" y="1280" as="targetPoint" />
          </mxGeometry>
        </mxCell>
        <mxCell id="Yi0YoR2tTTPQUQmLsUzV-60" value="" style="html=1;points=[];perimeter=orthogonalPerimeter;outlineConnect=0;targetShapes=umlLifeline;portConstraint=eastwest;newEdgeStyle={&quot;edgeStyle&quot;:&quot;elbowEdgeStyle&quot;,&quot;elbow&quot;:&quot;vertical&quot;,&quot;curved&quot;:0,&quot;rounded&quot;:0};" vertex="1" parent="1">
          <mxGeometry x="77.5" y="1110" width="25" height="70" as="geometry" />
        </mxCell>
        <mxCell id="Yi0YoR2tTTPQUQmLsUzV-61" value="" style="html=1;points=[];perimeter=orthogonalPerimeter;outlineConnect=0;targetShapes=umlLifeline;portConstraint=eastwest;newEdgeStyle={&quot;edgeStyle&quot;:&quot;elbowEdgeStyle&quot;,&quot;elbow&quot;:&quot;vertical&quot;,&quot;curved&quot;:0,&quot;rounded&quot;:0};" vertex="1" parent="1">
          <mxGeometry x="77.5" y="1240" width="25" height="70" as="geometry" />
        </mxCell>
        <mxCell id="Yi0YoR2tTTPQUQmLsUzV-62" value="display success message" style="html=1;verticalAlign=bottom;endArrow=open;dashed=1;endSize=8;curved=0;rounded=0;" edge="1" parent="1">
          <mxGeometry relative="1" as="geometry">
            <mxPoint x="255.5" y="1160" as="sourcePoint" />
            <mxPoint x="102.5" y="1160" as="targetPoint" />
          </mxGeometry>
        </mxCell>
        <mxCell id="Yi0YoR2tTTPQUQmLsUzV-63" value="display failure message" style="html=1;verticalAlign=bottom;endArrow=open;dashed=1;endSize=8;curved=0;rounded=0;" edge="1" parent="1">
          <mxGeometry relative="1" as="geometry">
            <mxPoint x="255.5" y="1290" as="sourcePoint" />
            <mxPoint x="102.5" y="1290" as="targetPoint" />
          </mxGeometry>
        </mxCell>
        <mxCell id="Yi0YoR2tTTPQUQmLsUzV-64" value="" style="endArrow=none;dashed=1;html=1;rounded=0;exitX=0.002;exitY=0.473;exitDx=0;exitDy=0;exitPerimeter=0;entryX=1.001;entryY=0.87;entryDx=0;entryDy=0;entryPerimeter=0;" edge="1" parent="1">
          <mxGeometry width="50" height="50" relative="1" as="geometry">
            <mxPoint x="-69.99999999999976" y="1451.1599999999999" as="sourcePoint" />
            <mxPoint x="745.815" y="1449.9999999999995" as="targetPoint" />
          </mxGeometry>
        </mxCell>
        <mxCell id="Yi0YoR2tTTPQUQmLsUzV-65" value="&lt;b style=&quot;border-color: var(--border-color); color: rgb(0, 0, 0); font-family: Helvetica; font-size: 12px; font-style: normal; font-variant-ligatures: normal; font-variant-caps: normal; letter-spacing: normal; orphans: 2; text-align: center; text-indent: 0px; text-transform: none; widows: 2; word-spacing: 0px; -webkit-text-stroke-width: 0px; background-color: rgb(251, 251, 251); text-decoration-thickness: initial; text-decoration-style: initial; text-decoration-color: initial;&quot;&gt;[record&amp;nbsp; &lt;br&gt;not found]&lt;/b&gt;" style="text;whiteSpace=wrap;html=1;" vertex="1" parent="1">
          <mxGeometry x="-60" y="1460" width="75" height="40" as="geometry" />
        </mxCell>
        <mxCell id="Yi0YoR2tTTPQUQmLsUzV-67" value="" style="html=1;points=[];perimeter=orthogonalPerimeter;outlineConnect=0;targetShapes=umlLifeline;portConstraint=eastwest;newEdgeStyle={&quot;edgeStyle&quot;:&quot;elbowEdgeStyle&quot;,&quot;elbow&quot;:&quot;vertical&quot;,&quot;curved&quot;:0,&quot;rounded&quot;:0};" vertex="1" parent="1">
          <mxGeometry x="260" y="1470" width="25" height="70" as="geometry" />
        </mxCell>
        <mxCell id="Yi0YoR2tTTPQUQmLsUzV-68" value="show no found message" style="html=1;verticalAlign=bottom;endArrow=open;dashed=1;endSize=8;curved=0;rounded=0;" edge="1" parent="1">
          <mxGeometry relative="1" as="geometry">
            <mxPoint x="260" y="1500" as="sourcePoint" />
            <mxPoint x="100" y="1500" as="targetPoint" />
          </mxGeometry>
        </mxCell>
        <mxCell id="Yi0YoR2tTTPQUQmLsUzV-69" value="" style="html=1;points=[];perimeter=orthogonalPerimeter;outlineConnect=0;targetShapes=umlLifeline;portConstraint=eastwest;newEdgeStyle={&quot;edgeStyle&quot;:&quot;elbowEdgeStyle&quot;,&quot;elbow&quot;:&quot;vertical&quot;,&quot;curved&quot;:0,&quot;rounded&quot;:0};" vertex="1" parent="1">
          <mxGeometry x="437.5" y="1470" width="25" height="70" as="geometry" />
        </mxCell>
        <mxCell id="Yi0YoR2tTTPQUQmLsUzV-70" value="displayNoRecordFound()" style="html=1;verticalAlign=bottom;endArrow=open;dashed=1;endSize=8;curved=0;rounded=0;" edge="1" parent="1">
          <mxGeometry relative="1" as="geometry">
            <mxPoint x="440" y="1490" as="sourcePoint" />
            <mxPoint x="285" y="1490" as="targetPoint" />
          </mxGeometry>
        </mxCell>
        <mxCell id="Yi0YoR2tTTPQUQmLsUzV-71" value="" style="endArrow=none;dashed=1;html=1;rounded=0;exitX=0.002;exitY=0.473;exitDx=0;exitDy=0;exitPerimeter=0;entryX=1;entryY=0.917;entryDx=0;entryDy=0;entryPerimeter=0;" edge="1" parent="1" target="Yi0YoR2tTTPQUQmLsUzV-9">
          <mxGeometry width="50" height="50" relative="1" as="geometry">
            <mxPoint x="-89.99999999999976" y="1631.1599999999999" as="sourcePoint" />
            <mxPoint x="725.815" y="1629.9999999999995" as="targetPoint" />
          </mxGeometry>
        </mxCell>
        <mxCell id="Yi0YoR2tTTPQUQmLsUzV-72" value="&lt;b&gt;[Login failure]&lt;/b&gt;" style="text;html=1;strokeColor=none;fillColor=none;align=center;verticalAlign=middle;whiteSpace=wrap;rounded=0;" vertex="1" parent="1">
          <mxGeometry x="-80" y="1650" width="60" height="30" as="geometry" />
        </mxCell>
        <mxCell id="Yi0YoR2tTTPQUQmLsUzV-73" value="display login error" style="html=1;verticalAlign=bottom;endArrow=open;dashed=1;endSize=8;curved=0;rounded=0;" edge="1" parent="1">
          <mxGeometry relative="1" as="geometry">
            <mxPoint x="257.5" y="1684.41" as="sourcePoint" />
            <mxPoint x="99.5" y="1684.41" as="targetPoint" />
          </mxGeometry>
        </mxCell>
        <mxCell id="Yi0YoR2tTTPQUQmLsUzV-75" value="" style="html=1;points=[];perimeter=orthogonalPerimeter;outlineConnect=0;targetShapes=umlLifeline;portConstraint=eastwest;newEdgeStyle={&quot;edgeStyle&quot;:&quot;elbowEdgeStyle&quot;,&quot;elbow&quot;:&quot;vertical&quot;,&quot;curved&quot;:0,&quot;rounded&quot;:0};" vertex="1" parent="1">
          <mxGeometry x="260" y="1650" width="25" height="70" as="geometry" />
        </mxCell>
        <mxCell id="Yi0YoR2tTTPQUQmLsUzV-76" value="" style="html=1;points=[];perimeter=orthogonalPerimeter;outlineConnect=0;targetShapes=umlLifeline;portConstraint=eastwest;newEdgeStyle={&quot;edgeStyle&quot;:&quot;elbowEdgeStyle&quot;,&quot;elbow&quot;:&quot;vertical&quot;,&quot;curved&quot;:0,&quot;rounded&quot;:0};" vertex="1" parent="1">
          <mxGeometry x="437.5" y="1650" width="25" height="70" as="geometry" />
        </mxCell>
        <mxCell id="Yi0YoR2tTTPQUQmLsUzV-77" value="loginFailure" style="html=1;verticalAlign=bottom;endArrow=open;dashed=1;endSize=8;curved=0;rounded=0;" edge="1" parent="1">
          <mxGeometry relative="1" as="geometry">
            <mxPoint x="440" y="1670" as="sourcePoint" />
            <mxPoint x="285" y="1670" as="targetPoint" />
          </mxGeometry>
        </mxCell>
      </root>
    </mxGraphModel>
  </diagram>
</mxfile>
